<svg xmlns="http://www.w3.org/2000/svg" viewBox="0 0 640 420" role="img" aria-label="Mini Globe"><defs>
    <radialGradient id="bg"><stop stop-color="#334c3a"/><stop offset="1" stop-color="#101811"/></radialGradient>
    <linearGradient id="gold" x1="0" y1="0" x2="1" y2="1"><stop stop-color="#fff3ae"/><stop offset=".5" stop-color="#ffbe58"/><stop offset="1" stop-color="#e86d36"/></linearGradient>
    <linearGradient id="pink" x1="0" y1="0" x2="1" y2="1"><stop stop-color="#ff78c8"/><stop offset="1" stop-color="#8c5bff"/></linearGradient>
    <linearGradient id="cyan" x1="0" y1="0" x2="1" y2="1"><stop stop-color="#8ffff0"/><stop offset="1" stop-color="#26a7ff"/></linearGradient>
    <filter id="glow"><feGaussianBlur stdDeviation="14"/></filter>
    </defs><rect width="640" height="420" rx="26" fill="url(#bg)"/><ellipse cx="320" cy="345" rx="190" ry="22" fill="#000" opacity=".35"/><circle cx="320" cy="190" r="120" fill="url(#cyan)"/><path d="M205 180q115-70 230 0M220 245q100-50 200 0M320 70v240M250 90q-50 100 0 200M390 90q50 100 0 200" fill="none" stroke="#16251b" stroke-width="9"/><path d="M255 150l45-20 35 35-20 40-50-10Z" fill="#77e6a5"/><path d="M345 220l55-20 20 45-55 25Z" fill="#77e6a5"/></svg>